<?xml version="1.0" encoding="utf-8"?>
<!-- Generator: Adobe Illustrator 22.1.0, SVG Export Plug-In . SVG Version: 6.00 Build 0)  -->
<svg version="1.1" xmlns="http://www.w3.org/2000/svg" xmlns:xlink="http://www.w3.org/1999/xlink" x="0px" y="0px"
	 viewBox="0 0 500 500" style="enable-background:new 0 0 500 500;" xml:space="preserve">
<style type="text/css">
	.st0{fill:none;}
	.st1{clip-path:url(#SVGID_2_);fill:#EAEAEA;}
	.st2{clip-path:url(#SVGID_2_);}
	.st3{fill:#F1A6C5;}
	.st4{clip-path:url(#SVGID_2_);fill:#FFC800;}
	
		.st5{clip-path:url(#SVGID_2_);fill:none;stroke:#241E1E;stroke-width:0.6553;stroke-linecap:round;stroke-linejoin:round;stroke-miterlimit:10;}
	.st6{fill:#ABCAE5;}
	.st7{fill:#201C1D;}
	.st8{clip-path:url(#SVGID_2_);fill:#34396B;}
	.st9{clip-path:url(#SVGID_2_);fill:none;stroke:#FFC800;stroke-width:0.6553;stroke-miterlimit:10;}
	.st10{fill:#A3D8DB;}
	.st11{fill:#FFC800;}
	.st12{fill:#34396B;}
	.st13{fill:url(#Nueva_muestra_de_motivo_25);}
	.st14{fill:url(#SVGID_3_);}
	.st15{fill:url(#SVGID_4_);}
	.st16{fill:url(#SVGID_5_);}
</style>
<pattern  x="-150" y="-750.1" width="129.4" height="129.4" patternUnits="userSpaceOnUse" id="Nueva_muestra_de_motivo_25" viewBox="0.8 -130.2 129.4 129.4" style="overflow:visible;">
	<g>
		<rect x="0.8" y="-130.2" class="st0" width="129.4" height="129.4"/>
		<g>
			<defs>
				<rect id="SVGID_1_" x="0.8" y="-130.2" width="129.4" height="129.4"/>
			</defs>
			<clipPath id="SVGID_2_">
				<use xlink:href="#SVGID_1_"  style="overflow:visible;"/>
			</clipPath>
			<rect x="0.8" y="-130.2" class="st1" width="129.4" height="129.4"/>
			<g class="st2">
				<path class="st3" d="M10.7-111c-0.4,0-0.8,0.3-0.8,0.8c0,0.4,0.3,0.8,0.8,0.8c0.4,0,0.8-0.3,0.8-0.8
					C11.5-110.7,11.1-111,10.7-111z"/>
				<path class="st3" d="M20.7-111c-0.4,0-0.8,0.3-0.8,0.8c0,0.4,0.3,0.8,0.8,0.8c0.4,0,0.8-0.3,0.8-0.8
					C21.4-110.7,21.1-111,20.7-111z"/>
				<path class="st3" d="M30.6-111c-0.4,0-0.8,0.3-0.8,0.8c0,0.4,0.3,0.8,0.8,0.8c0.4,0,0.8-0.3,0.8-0.8C31.4-110.7,31-111,30.6-111
					z"/>
				<path class="st3" d="M40.6-111c-0.4,0-0.8,0.3-0.8,0.8c0,0.4,0.3,0.8,0.8,0.8c0.4,0,0.8-0.3,0.8-0.8C41.3-110.7,41-111,40.6-111
					z"/>
				<path class="st3" d="M50.5-111c-0.4,0-0.8,0.3-0.8,0.8c0,0.4,0.3,0.8,0.8,0.8c0.4,0,0.8-0.3,0.8-0.8C51.3-110.7,51-111,50.5-111
					z"/>
				<path class="st3" d="M60.5-111c-0.4,0-0.8,0.3-0.8,0.8c0,0.4,0.3,0.8,0.8,0.8c0.4,0,0.8-0.3,0.8-0.8
					C61.3-110.7,60.9-111,60.5-111z"/>
				<path class="st3" d="M70.5-111c-0.4,0-0.8,0.3-0.8,0.8c0,0.4,0.3,0.8,0.8,0.8c0.4,0,0.8-0.3,0.8-0.8
					C71.2-110.7,70.9-111,70.5-111z"/>
				<path class="st3" d="M80.4-111c-0.4,0-0.8,0.3-0.8,0.8c0,0.4,0.3,0.8,0.8,0.8c0.4,0,0.8-0.3,0.8-0.8
					C81.2-110.7,80.8-111,80.4-111z"/>
				<path class="st3" d="M90.4-111c-0.4,0-0.8,0.3-0.8,0.8c0,0.4,0.3,0.8,0.8,0.8c0.4,0,0.8-0.3,0.8-0.8
					C91.1-110.7,90.8-111,90.4-111z"/>
				<path class="st3" d="M100.3-111c-0.4,0-0.8,0.3-0.8,0.8c0,0.4,0.3,0.8,0.8,0.8c0.4,0,0.8-0.3,0.8-0.8
					C101.1-110.7,100.7-111,100.3-111z"/>
				<path class="st3" d="M110.3-111c-0.4,0-0.8,0.3-0.8,0.8c0,0.4,0.3,0.8,0.8,0.8c0.4,0,0.8-0.3,0.8-0.8
					C111-110.7,110.7-111,110.3-111z"/>
				<path class="st3" d="M120.2-111c-0.4,0-0.8,0.3-0.8,0.8c0,0.4,0.3,0.8,0.8,0.8s0.8-0.3,0.8-0.8C121-110.7,120.7-111,120.2-111z"
					/>
				
					<ellipse transform="matrix(0.9999 -1.379462e-02 1.379462e-02 0.9999 1.385 0.1383)" class="st3" cx="10.7" cy="-100.3" rx="0.8" ry="0.8"/>
				<path class="st3" d="M20.7-101.1c-0.4,0-0.8,0.3-0.8,0.8c0,0.4,0.3,0.8,0.8,0.8c0.4,0,0.8-0.3,0.8-0.8
					C21.4-100.7,21.1-101.1,20.7-101.1z"/>
				<path class="st3" d="M30.6-101.1c-0.4,0-0.8,0.3-0.8,0.8c0,0.4,0.3,0.8,0.8,0.8c0.4,0,0.8-0.3,0.8-0.8
					C31.4-100.7,31-101.1,30.6-101.1z"/>
				<path class="st3" d="M40.6-101.1c-0.4,0-0.8,0.3-0.8,0.8c0,0.4,0.3,0.8,0.8,0.8c0.4,0,0.8-0.3,0.8-0.8
					C41.3-100.7,41-101.1,40.6-101.1z"/>
				<path class="st3" d="M50.5-101.1c-0.4,0-0.8,0.3-0.8,0.8c0,0.4,0.3,0.8,0.8,0.8c0.4,0,0.8-0.3,0.8-0.8
					C51.3-100.7,51-101.1,50.5-101.1z"/>
				<path class="st3" d="M60.5-101.1c-0.4,0-0.8,0.3-0.8,0.8c0,0.4,0.3,0.8,0.8,0.8c0.4,0,0.8-0.3,0.8-0.8
					C61.3-100.7,60.9-101.1,60.5-101.1z"/>
				<circle class="st3" cx="70.5" cy="-100.3" r="0.8"/>
				<path class="st3" d="M20.7-121c-0.4,0-0.8,0.3-0.8,0.8c0,0.4,0.3,0.8,0.8,0.8c0.4,0,0.8-0.3,0.8-0.8
					C21.4-120.7,21.1-121,20.7-121z"/>
				<path class="st3" d="M30.6-121c-0.4,0-0.8,0.3-0.8,0.8c0,0.4,0.3,0.8,0.8,0.8c0.4,0,0.8-0.3,0.8-0.8C31.4-120.7,31-121,30.6-121
					z"/>
				<path class="st3" d="M40.6-121c-0.4,0-0.8,0.3-0.8,0.8c0,0.4,0.3,0.8,0.8,0.8c0.4,0,0.8-0.3,0.8-0.8C41.3-120.7,41-121,40.6-121
					z"/>
				<path class="st3" d="M50.5-121c-0.4,0-0.8,0.3-0.8,0.8c0,0.4,0.3,0.8,0.8,0.8c0.4,0,0.8-0.3,0.8-0.8C51.3-120.7,51-121,50.5-121
					z"/>
				<path class="st3" d="M60.5-121c-0.4,0-0.8,0.3-0.8,0.8c0,0.4,0.3,0.8,0.8,0.8c0.4,0,0.8-0.3,0.8-0.8
					C61.3-120.7,60.9-121,60.5-121z"/>
				<path class="st3" d="M70.5-121c-0.4,0-0.8,0.3-0.8,0.8c0,0.4,0.3,0.8,0.8,0.8c0.4,0,0.8-0.3,0.8-0.8
					C71.2-120.7,70.9-121,70.5-121z"/>
				<path class="st3" d="M80.4-121c-0.4,0-0.8,0.3-0.8,0.8c0,0.4,0.3,0.8,0.8,0.8c0.4,0,0.8-0.3,0.8-0.8
					C81.2-120.7,80.8-121,80.4-121z"/>
				<path class="st3" d="M90.4-121c-0.4,0-0.8,0.3-0.8,0.8c0,0.4,0.3,0.8,0.8,0.8c0.4,0,0.8-0.3,0.8-0.8
					C91.1-120.7,90.8-121,90.4-121z"/>
				<path class="st3" d="M100.3-121c-0.4,0-0.8,0.3-0.8,0.8c0,0.4,0.3,0.8,0.8,0.8c0.4,0,0.8-0.3,0.8-0.8
					C101.1-120.7,100.7-121,100.3-121z"/>
				<path class="st3" d="M110.3-121c-0.4,0-0.8,0.3-0.8,0.8c0,0.4,0.3,0.8,0.8,0.8c0.4,0,0.8-0.3,0.8-0.8
					C111-120.7,110.7-121,110.3-121z"/>
				<path class="st3" d="M120.2-121c-0.4,0-0.8,0.3-0.8,0.8c0,0.4,0.3,0.8,0.8,0.8s0.8-0.3,0.8-0.8C121-120.7,120.7-121,120.2-121z"
					/>
				<path class="st3" d="M10.7-121c-0.4,0-0.8,0.3-0.8,0.8c0,0.4,0.3,0.8,0.8,0.8c0.4,0,0.8-0.3,0.8-0.8
					C11.5-120.7,11.1-121,10.7-121z"/>
				
					<ellipse transform="matrix(0.1598 -0.9871 0.9871 0.1598 137.523 -98.8113)" class="st3" cx="10.7" cy="-130.2" rx="0.8" ry="0.8"/>
				<path class="st3" d="M20.7-131c-0.4,0-0.8,0.3-0.8,0.8c0,0.4,0.3,0.8,0.8,0.8c0.4,0,0.8-0.3,0.8-0.8
					C21.4-130.6,21.1-131,20.7-131z"/>
				<path class="st3" d="M30.6-131c-0.4,0-0.8,0.3-0.8,0.8c0,0.4,0.3,0.8,0.8,0.8c0.4,0,0.8-0.3,0.8-0.8C31.4-130.6,31-131,30.6-131
					z"/>
				<path class="st3" d="M40.6-131c-0.4,0-0.8,0.3-0.8,0.8c0,0.4,0.3,0.8,0.8,0.8c0.4,0,0.8-0.3,0.8-0.8C41.3-130.6,41-131,40.6-131
					z"/>
				<path class="st3" d="M50.5-131c-0.4,0-0.8,0.3-0.8,0.8c0,0.4,0.3,0.8,0.8,0.8c0.4,0,0.8-0.3,0.8-0.8C51.3-130.6,51-131,50.5-131
					z"/>
				<path class="st3" d="M60.5-131c-0.4,0-0.8,0.3-0.8,0.8c0,0.4,0.3,0.8,0.8,0.8c0.4,0,0.8-0.3,0.8-0.8
					C61.3-130.6,60.9-131,60.5-131z"/>
				<circle class="st3" cx="70.5" cy="-130.2" r="0.8"/>
				<path class="st3" d="M80.4-131c-0.4,0-0.8,0.3-0.8,0.8c0,0.4,0.3,0.8,0.8,0.8c0.4,0,0.8-0.3,0.8-0.8
					C81.2-130.6,80.8-131,80.4-131z"/>
				<circle class="st3" cx="90.4" cy="-130.2" r="0.8"/>
				
					<ellipse transform="matrix(3.211564e-03 -1 1 3.211564e-03 230.1949 -29.4522)" class="st3" cx="100.3" cy="-130.2" rx="0.8" ry="0.8"/>
				<circle class="st3" cx="110.3" cy="-130.2" r="0.8"/>
				<path class="st3" d="M120.2-131c-0.4,0-0.8,0.3-0.8,0.8c0,0.4,0.3,0.8,0.8,0.8s0.8-0.3,0.8-0.8C121-130.6,120.7-131,120.2-131z"
					/>
				<path class="st3" d="M80.4-101.1c-0.4,0-0.8,0.3-0.8,0.8c0,0.4,0.3,0.8,0.8,0.8c0.4,0,0.8-0.3,0.8-0.8
					C81.2-100.7,80.8-101.1,80.4-101.1z"/>
				<circle class="st3" cx="90.4" cy="-100.3" r="0.8"/>
				<circle class="st3" cx="100.3" cy="-100.3" r="0.8"/>
				<circle class="st3" cx="110.3" cy="-100.3" r="0.8"/>
				<path class="st3" d="M120.2-101.1c-0.4,0-0.8,0.3-0.8,0.8c0,0.4,0.3,0.8,0.8,0.8s0.8-0.3,0.8-0.8
					C121-100.7,120.7-101.1,120.2-101.1z"/>
				<path class="st3" d="M10.7-91.1c-0.4,0-0.8,0.3-0.8,0.8s0.3,0.8,0.8,0.8c0.4,0,0.8-0.3,0.8-0.8S11.1-91.1,10.7-91.1z"/>
				<path class="st3" d="M20.7-91.1c-0.4,0-0.8,0.3-0.8,0.8s0.3,0.8,0.8,0.8c0.4,0,0.8-0.3,0.8-0.8S21.1-91.1,20.7-91.1z"/>
				<path class="st3" d="M30.6-91.1c-0.4,0-0.8,0.3-0.8,0.8s0.3,0.8,0.8,0.8c0.4,0,0.8-0.3,0.8-0.8S31-91.1,30.6-91.1z"/>
				<path class="st3" d="M40.6-91.1c-0.4,0-0.8,0.3-0.8,0.8s0.3,0.8,0.8,0.8c0.4,0,0.8-0.3,0.8-0.8S41-91.1,40.6-91.1z"/>
				<path class="st3" d="M50.5-91.1c-0.4,0-0.8,0.3-0.8,0.8s0.3,0.8,0.8,0.8c0.4,0,0.8-0.3,0.8-0.8S51-91.1,50.5-91.1z"/>
				<path class="st3" d="M60.5-91.1c-0.4,0-0.8,0.3-0.8,0.8s0.3,0.8,0.8,0.8c0.4,0,0.8-0.3,0.8-0.8S60.9-91.1,60.5-91.1z"/>
				<path class="st3" d="M70.5-91.1c-0.4,0-0.8,0.3-0.8,0.8s0.3,0.8,0.8,0.8c0.4,0,0.8-0.3,0.8-0.8S70.9-91.1,70.5-91.1z"/>
				<path class="st3" d="M80.4-91.1c-0.4,0-0.8,0.3-0.8,0.8s0.3,0.8,0.8,0.8c0.4,0,0.8-0.3,0.8-0.8S80.8-91.1,80.4-91.1z"/>
				<path class="st3" d="M90.4-91.1c-0.4,0-0.8,0.3-0.8,0.8s0.3,0.8,0.8,0.8c0.4,0,0.8-0.3,0.8-0.8S90.8-91.1,90.4-91.1z"/>
				<path class="st3" d="M100.3-91.1c-0.4,0-0.8,0.3-0.8,0.8s0.3,0.8,0.8,0.8c0.4,0,0.8-0.3,0.8-0.8S100.7-91.1,100.3-91.1z"/>
				<path class="st3" d="M110.3-91.1c-0.4,0-0.8,0.3-0.8,0.8s0.3,0.8,0.8,0.8c0.4,0,0.8-0.3,0.8-0.8S110.7-91.1,110.3-91.1z"/>
				<path class="st3" d="M120.2-91.1c-0.4,0-0.8,0.3-0.8,0.8s0.3,0.8,0.8,0.8s0.8-0.3,0.8-0.8S120.7-91.1,120.2-91.1z"/>
				<path class="st3" d="M10.7-81.2c-0.4,0-0.8,0.3-0.8,0.8c0,0.4,0.3,0.8,0.8,0.8c0.4,0,0.8-0.3,0.8-0.8
					C11.5-80.8,11.1-81.2,10.7-81.2z"/>
				<path class="st3" d="M20.7-81.2c-0.4,0-0.8,0.3-0.8,0.8c0,0.4,0.3,0.8,0.8,0.8c0.4,0,0.8-0.3,0.8-0.8
					C21.4-80.8,21.1-81.2,20.7-81.2z"/>
				<path class="st3" d="M30.6-81.2c-0.4,0-0.8,0.3-0.8,0.8c0,0.4,0.3,0.8,0.8,0.8c0.4,0,0.8-0.3,0.8-0.8
					C31.4-80.8,31-81.2,30.6-81.2z"/>
				<path class="st3" d="M40.6-81.2c-0.4,0-0.8,0.3-0.8,0.8c0,0.4,0.3,0.8,0.8,0.8c0.4,0,0.8-0.3,0.8-0.8
					C41.3-80.8,41-81.2,40.6-81.2z"/>
				<path class="st3" d="M50.5-81.2c-0.4,0-0.8,0.3-0.8,0.8c0,0.4,0.3,0.8,0.8,0.8c0.4,0,0.8-0.3,0.8-0.8
					C51.3-80.8,51-81.2,50.5-81.2z"/>
				<path class="st3" d="M60.5-81.2c-0.4,0-0.8,0.3-0.8,0.8c0,0.4,0.3,0.8,0.8,0.8c0.4,0,0.8-0.3,0.8-0.8
					C61.3-80.8,60.9-81.2,60.5-81.2z"/>
				<path class="st3" d="M70.5-81.2c-0.4,0-0.8,0.3-0.8,0.8c0,0.4,0.3,0.8,0.8,0.8c0.4,0,0.8-0.3,0.8-0.8
					C71.2-80.8,70.9-81.2,70.5-81.2z"/>
				<path class="st3" d="M80.4-81.2c-0.4,0-0.8,0.3-0.8,0.8c0,0.4,0.3,0.8,0.8,0.8c0.4,0,0.8-0.3,0.8-0.8
					C81.2-80.8,80.8-81.2,80.4-81.2z"/>
				<path class="st3" d="M90.4-81.2c-0.4,0-0.8,0.3-0.8,0.8c0,0.4,0.3,0.8,0.8,0.8c0.4,0,0.8-0.3,0.8-0.8
					C91.1-80.8,90.8-81.2,90.4-81.2z"/>
				<path class="st3" d="M100.3-81.2c-0.4,0-0.8,0.3-0.8,0.8c0,0.4,0.3,0.8,0.8,0.8c0.4,0,0.8-0.3,0.8-0.8
					C101.1-80.8,100.7-81.2,100.3-81.2z"/>
				<path class="st3" d="M110.3-81.2c-0.4,0-0.8,0.3-0.8,0.8c0,0.4,0.3,0.8,0.8,0.8c0.4,0,0.8-0.3,0.8-0.8
					C111-80.8,110.7-81.2,110.3-81.2z"/>
				<path class="st3" d="M120.2-81.2c-0.4,0-0.8,0.3-0.8,0.8c0,0.4,0.3,0.8,0.8,0.8s0.8-0.3,0.8-0.8C121-80.8,120.7-81.2,120.2-81.2
					z"/>
				<path class="st3" d="M10.7-71.2c-0.4,0-0.8,0.3-0.8,0.8s0.3,0.8,0.8,0.8c0.4,0,0.8-0.3,0.8-0.8S11.1-71.2,10.7-71.2z"/>
				<path class="st3" d="M20.7-71.2c-0.4,0-0.8,0.3-0.8,0.8s0.3,0.8,0.8,0.8c0.4,0,0.8-0.3,0.8-0.8S21.1-71.2,20.7-71.2z"/>
				<path class="st3" d="M30.6-71.2c-0.4,0-0.8,0.3-0.8,0.8s0.3,0.8,0.8,0.8c0.4,0,0.8-0.3,0.8-0.8S31-71.2,30.6-71.2z"/>
				<path class="st3" d="M40.6-71.2c-0.4,0-0.8,0.3-0.8,0.8s0.3,0.8,0.8,0.8c0.4,0,0.8-0.3,0.8-0.8S41-71.2,40.6-71.2z"/>
				<path class="st3" d="M50.5-71.2c-0.4,0-0.8,0.3-0.8,0.8s0.3,0.8,0.8,0.8c0.4,0,0.8-0.3,0.8-0.8S51-71.2,50.5-71.2z"/>
				<path class="st3" d="M60.5-71.2c-0.4,0-0.8,0.3-0.8,0.8s0.3,0.8,0.8,0.8c0.4,0,0.8-0.3,0.8-0.8S60.9-71.2,60.5-71.2z"/>
				<path class="st3" d="M70.5-71.2c-0.4,0-0.8,0.3-0.8,0.8s0.3,0.8,0.8,0.8c0.4,0,0.8-0.3,0.8-0.8S70.9-71.2,70.5-71.2z"/>
				<path class="st3" d="M80.4-71.2c-0.4,0-0.8,0.3-0.8,0.8s0.3,0.8,0.8,0.8c0.4,0,0.8-0.3,0.8-0.8S80.8-71.2,80.4-71.2z"/>
				<path class="st3" d="M90.4-71.2c-0.4,0-0.8,0.3-0.8,0.8s0.3,0.8,0.8,0.8c0.4,0,0.8-0.3,0.8-0.8S90.8-71.2,90.4-71.2z"/>
				<path class="st3" d="M100.3-71.2c-0.4,0-0.8,0.3-0.8,0.8s0.3,0.8,0.8,0.8c0.4,0,0.8-0.3,0.8-0.8S100.7-71.2,100.3-71.2z"/>
				<path class="st3" d="M110.3-71.2c-0.4,0-0.8,0.3-0.8,0.8s0.3,0.8,0.8,0.8c0.4,0,0.8-0.3,0.8-0.8S110.7-71.2,110.3-71.2z"/>
				<path class="st3" d="M120.2-71.2c-0.4,0-0.8,0.3-0.8,0.8s0.3,0.8,0.8,0.8s0.8-0.3,0.8-0.8S120.7-71.2,120.2-71.2z"/>
				
					<ellipse transform="matrix(0.9999 -1.351064e-02 1.351064e-02 0.9999 0.8183 0.1392)" class="st3" cx="10.7" cy="-60.5" rx="0.8" ry="0.8"/>
				<path class="st3" d="M20.7-61.3c-0.4,0-0.8,0.3-0.8,0.8c0,0.4,0.3,0.8,0.8,0.8c0.4,0,0.8-0.3,0.8-0.8
					C21.4-60.9,21.1-61.3,20.7-61.3z"/>
				<path class="st3" d="M30.6-61.3c-0.4,0-0.8,0.3-0.8,0.8c0,0.4,0.3,0.8,0.8,0.8c0.4,0,0.8-0.3,0.8-0.8
					C31.4-60.9,31-61.3,30.6-61.3z"/>
				<path class="st3" d="M40.6-61.3c-0.4,0-0.8,0.3-0.8,0.8c0,0.4,0.3,0.8,0.8,0.8c0.4,0,0.8-0.3,0.8-0.8
					C41.3-60.9,41-61.3,40.6-61.3z"/>
				<path class="st3" d="M50.5-61.3c-0.4,0-0.8,0.3-0.8,0.8c0,0.4,0.3,0.8,0.8,0.8c0.4,0,0.8-0.3,0.8-0.8
					C51.3-60.9,51-61.3,50.5-61.3z"/>
				<path class="st3" d="M60.5-61.3c-0.4,0-0.8,0.3-0.8,0.8c0,0.4,0.3,0.8,0.8,0.8c0.4,0,0.8-0.3,0.8-0.8
					C61.3-60.9,60.9-61.3,60.5-61.3z"/>
				<circle class="st3" cx="70.5" cy="-60.5" r="0.8"/>
				<path class="st3" d="M80.4-61.3c-0.4,0-0.8,0.3-0.8,0.8c0,0.4,0.3,0.8,0.8,0.8c0.4,0,0.8-0.3,0.8-0.8
					C81.2-60.9,80.8-61.3,80.4-61.3z"/>
				<circle class="st3" cx="90.4" cy="-60.5" r="0.8"/>
				<circle class="st3" cx="100.3" cy="-60.5" r="0.8"/>
				<circle class="st3" cx="110.3" cy="-60.5" r="0.8"/>
				<path class="st3" d="M120.2-61.3c-0.4,0-0.8,0.3-0.8,0.8c0,0.4,0.3,0.8,0.8,0.8s0.8-0.3,0.8-0.8C121-60.9,120.7-61.3,120.2-61.3
					z"/>
				
					<ellipse transform="matrix(0.9999 -1.351064e-02 1.351064e-02 0.9999 0.6838 0.1401)" class="st3" cx="10.7" cy="-50.5" rx="0.8" ry="0.8"/>
				<path class="st3" d="M20.7-51.3c-0.4,0-0.8,0.3-0.8,0.8c0,0.4,0.3,0.8,0.8,0.8c0.4,0,0.8-0.3,0.8-0.8
					C21.4-51,21.1-51.3,20.7-51.3z"/>
				<path class="st3" d="M30.6-51.3c-0.4,0-0.8,0.3-0.8,0.8c0,0.4,0.3,0.8,0.8,0.8c0.4,0,0.8-0.3,0.8-0.8C31.4-51,31-51.3,30.6-51.3
					z"/>
				<path class="st3" d="M40.6-51.3c-0.4,0-0.8,0.3-0.8,0.8c0,0.4,0.3,0.8,0.8,0.8c0.4,0,0.8-0.3,0.8-0.8C41.3-51,41-51.3,40.6-51.3
					z"/>
				<path class="st3" d="M50.5-51.3c-0.4,0-0.8,0.3-0.8,0.8c0,0.4,0.3,0.8,0.8,0.8c0.4,0,0.8-0.3,0.8-0.8C51.3-51,51-51.3,50.5-51.3
					z"/>
				<path class="st3" d="M60.5-51.3c-0.4,0-0.8,0.3-0.8,0.8c0,0.4,0.3,0.8,0.8,0.8c0.4,0,0.8-0.3,0.8-0.8
					C61.3-51,60.9-51.3,60.5-51.3z"/>
				<circle class="st3" cx="70.5" cy="-50.5" r="0.8"/>
				<path class="st3" d="M80.4-51.3c-0.4,0-0.8,0.3-0.8,0.8c0,0.4,0.3,0.8,0.8,0.8c0.4,0,0.8-0.3,0.8-0.8
					C81.2-51,80.8-51.3,80.4-51.3z"/>
				<circle class="st3" cx="90.4" cy="-50.5" r="0.8"/>
				<circle class="st3" cx="100.3" cy="-50.5" r="0.8"/>
				<circle class="st3" cx="110.3" cy="-50.5" r="0.8"/>
				<path class="st3" d="M120.2-51.3c-0.4,0-0.8,0.3-0.8,0.8c0,0.4,0.3,0.8,0.8,0.8s0.8-0.3,0.8-0.8C121-51,120.7-51.3,120.2-51.3z"
					/>
				<path class="st3" d="M10.7-41.3c-0.4,0-0.8,0.3-0.8,0.8c0,0.4,0.3,0.8,0.8,0.8c0.4,0,0.8-0.3,0.8-0.8
					C11.5-41,11.1-41.3,10.7-41.3z"/>
				<path class="st3" d="M20.7-41.3c-0.4,0-0.8,0.3-0.8,0.8c0,0.4,0.3,0.8,0.8,0.8c0.4,0,0.8-0.3,0.8-0.8
					C21.4-41,21.1-41.3,20.7-41.3z"/>
				<path class="st3" d="M30.6-41.3c-0.4,0-0.8,0.3-0.8,0.8c0,0.4,0.3,0.8,0.8,0.8c0.4,0,0.8-0.3,0.8-0.8C31.4-41,31-41.3,30.6-41.3
					z"/>
				<path class="st3" d="M40.6-41.3c-0.4,0-0.8,0.3-0.8,0.8c0,0.4,0.3,0.8,0.8,0.8c0.4,0,0.8-0.3,0.8-0.8C41.3-41,41-41.3,40.6-41.3
					z"/>
				<path class="st3" d="M50.5-41.3c-0.4,0-0.8,0.3-0.8,0.8c0,0.4,0.3,0.8,0.8,0.8c0.4,0,0.8-0.3,0.8-0.8C51.3-41,51-41.3,50.5-41.3
					z"/>
				<path class="st3" d="M60.5-41.3c-0.4,0-0.8,0.3-0.8,0.8c0,0.4,0.3,0.8,0.8,0.8c0.4,0,0.8-0.3,0.8-0.8
					C61.3-41,60.9-41.3,60.5-41.3z"/>
				<path class="st3" d="M70.5-41.3c-0.4,0-0.8,0.3-0.8,0.8c0,0.4,0.3,0.8,0.8,0.8c0.4,0,0.8-0.3,0.8-0.8
					C71.2-41,70.9-41.3,70.5-41.3z"/>
				<path class="st3" d="M80.4-41.3c-0.4,0-0.8,0.3-0.8,0.8c0,0.4,0.3,0.8,0.8,0.8c0.4,0,0.8-0.3,0.8-0.8
					C81.2-41,80.8-41.3,80.4-41.3z"/>
				<path class="st3" d="M90.4-41.3c-0.4,0-0.8,0.3-0.8,0.8c0,0.4,0.3,0.8,0.8,0.8c0.4,0,0.8-0.3,0.8-0.8
					C91.1-41,90.8-41.3,90.4-41.3z"/>
				<path class="st3" d="M100.3-41.3c-0.4,0-0.8,0.3-0.8,0.8c0,0.4,0.3,0.8,0.8,0.8c0.4,0,0.8-0.3,0.8-0.8
					C101.1-41,100.7-41.3,100.3-41.3z"/>
				<path class="st3" d="M110.3-41.3c-0.4,0-0.8,0.3-0.8,0.8c0,0.4,0.3,0.8,0.8,0.8c0.4,0,0.8-0.3,0.8-0.8
					C111-41,110.7-41.3,110.3-41.3z"/>
				<path class="st3" d="M120.2-41.3c-0.4,0-0.8,0.3-0.8,0.8c0,0.4,0.3,0.8,0.8,0.8s0.8-0.3,0.8-0.8C121-41,120.7-41.3,120.2-41.3z"
					/>
				
					<ellipse transform="matrix(0.9999 -1.351064e-02 1.351064e-02 0.9999 0.4148 0.142)" class="st3" cx="10.7" cy="-30.6" rx="0.8" ry="0.8"/>
				<path class="st3" d="M20.7-31.4c-0.4,0-0.8,0.3-0.8,0.8c0,0.4,0.3,0.8,0.8,0.8c0.4,0,0.8-0.3,0.8-0.8
					C21.4-31,21.1-31.4,20.7-31.4z"/>
				<path class="st3" d="M30.6-31.4c-0.4,0-0.8,0.3-0.8,0.8c0,0.4,0.3,0.8,0.8,0.8c0.4,0,0.8-0.3,0.8-0.8C31.4-31,31-31.4,30.6-31.4
					z"/>
				<path class="st3" d="M40.6-31.4c-0.4,0-0.8,0.3-0.8,0.8c0,0.4,0.3,0.8,0.8,0.8c0.4,0,0.8-0.3,0.8-0.8C41.3-31,41-31.4,40.6-31.4
					z"/>
				<path class="st3" d="M50.5-31.4c-0.4,0-0.8,0.3-0.8,0.8c0,0.4,0.3,0.8,0.8,0.8c0.4,0,0.8-0.3,0.8-0.8C51.3-31,51-31.4,50.5-31.4
					z"/>
				<path class="st3" d="M60.5-31.4c-0.4,0-0.8,0.3-0.8,0.8c0,0.4,0.3,0.8,0.8,0.8c0.4,0,0.8-0.3,0.8-0.8
					C61.3-31,60.9-31.4,60.5-31.4z"/>
				<circle class="st3" cx="70.5" cy="-30.6" r="0.8"/>
				<path class="st3" d="M80.4-31.4c-0.4,0-0.8,0.3-0.8,0.8c0,0.4,0.3,0.8,0.8,0.8c0.4,0,0.8-0.3,0.8-0.8
					C81.2-31,80.8-31.4,80.4-31.4z"/>
				<circle class="st3" cx="90.4" cy="-30.6" r="0.8"/>
				<circle class="st3" cx="100.3" cy="-30.6" r="0.8"/>
				<circle class="st3" cx="110.3" cy="-30.6" r="0.8"/>
				<path class="st3" d="M120.2-31.4c-0.4,0-0.8,0.3-0.8,0.8c0,0.4,0.3,0.8,0.8,0.8s0.8-0.3,0.8-0.8C121-31,120.7-31.4,120.2-31.4z"
					/>
				<path class="st3" d="M10.7-21.4c-0.4,0-0.8,0.3-0.8,0.8c0,0.4,0.3,0.8,0.8,0.8c0.4,0,0.8-0.3,0.8-0.8
					C11.5-21.1,11.1-21.4,10.7-21.4z"/>
				<path class="st3" d="M10.7-11.5c-0.4,0-0.8,0.3-0.8,0.8c0,0.4,0.3,0.8,0.8,0.8c0.4,0,0.8-0.3,0.8-0.8
					C11.5-11.1,11.1-11.5,10.7-11.5z"/>
				<path class="st3" d="M20.7-21.4c-0.4,0-0.8,0.3-0.8,0.8c0,0.4,0.3,0.8,0.8,0.8c0.4,0,0.8-0.3,0.8-0.8
					C21.4-21.1,21.1-21.4,20.7-21.4z"/>
				<path class="st3" d="M20.7-11.5c-0.4,0-0.8,0.3-0.8,0.8c0,0.4,0.3,0.8,0.8,0.8c0.4,0,0.8-0.3,0.8-0.8
					C21.4-11.1,21.1-11.5,20.7-11.5z"/>
				<path class="st3" d="M30.6-21.4c-0.4,0-0.8,0.3-0.8,0.8c0,0.4,0.3,0.8,0.8,0.8c0.4,0,0.8-0.3,0.8-0.8
					C31.4-21.1,31-21.4,30.6-21.4z"/>
				<path class="st3" d="M30.6-11.5c-0.4,0-0.8,0.3-0.8,0.8c0,0.4,0.3,0.8,0.8,0.8c0.4,0,0.8-0.3,0.8-0.8
					C31.4-11.1,31-11.5,30.6-11.5z"/>
				<path class="st3" d="M40.6-21.4c-0.4,0-0.8,0.3-0.8,0.8c0,0.4,0.3,0.8,0.8,0.8c0.4,0,0.8-0.3,0.8-0.8
					C41.3-21.1,41-21.4,40.6-21.4z"/>
				<path class="st3" d="M40.6-11.5c-0.4,0-0.8,0.3-0.8,0.8c0,0.4,0.3,0.8,0.8,0.8c0.4,0,0.8-0.3,0.8-0.8
					C41.3-11.1,41-11.5,40.6-11.5z"/>
				<path class="st3" d="M50.5-21.4c-0.4,0-0.8,0.3-0.8,0.8c0,0.4,0.3,0.8,0.8,0.8c0.4,0,0.8-0.3,0.8-0.8
					C51.3-21.1,51-21.4,50.5-21.4z"/>
				<path class="st3" d="M50.5-11.5c-0.4,0-0.8,0.3-0.8,0.8c0,0.4,0.3,0.8,0.8,0.8c0.4,0,0.8-0.3,0.8-0.8
					C51.3-11.1,51-11.5,50.5-11.5z"/>
				<path class="st3" d="M60.5-21.4c-0.4,0-0.8,0.3-0.8,0.8c0,0.4,0.3,0.8,0.8,0.8c0.4,0,0.8-0.3,0.8-0.8
					C61.3-21.1,60.9-21.4,60.5-21.4z"/>
				<path class="st3" d="M60.5-11.5c-0.4,0-0.8,0.3-0.8,0.8c0,0.4,0.3,0.8,0.8,0.8c0.4,0,0.8-0.3,0.8-0.8
					C61.3-11.1,60.9-11.5,60.5-11.5z"/>
				<path class="st3" d="M70.5-21.4c-0.4,0-0.8,0.3-0.8,0.8c0,0.4,0.3,0.8,0.8,0.8c0.4,0,0.8-0.3,0.8-0.8
					C71.2-21.1,70.9-21.4,70.5-21.4z"/>
				<path class="st3" d="M70.5-11.5c-0.4,0-0.8,0.3-0.8,0.8c0,0.4,0.3,0.8,0.8,0.8c0.4,0,0.8-0.3,0.8-0.8
					C71.2-11.1,70.9-11.5,70.5-11.5z"/>
				<path class="st3" d="M80.4-21.4c-0.4,0-0.8,0.3-0.8,0.8c0,0.4,0.3,0.8,0.8,0.8c0.4,0,0.8-0.3,0.8-0.8
					C81.2-21.1,80.8-21.4,80.4-21.4z"/>
				<path class="st3" d="M80.4-11.5c-0.4,0-0.8,0.3-0.8,0.8c0,0.4,0.3,0.8,0.8,0.8c0.4,0,0.8-0.3,0.8-0.8
					C81.2-11.1,80.8-11.5,80.4-11.5z"/>
				<path class="st3" d="M90.4-21.4c-0.4,0-0.8,0.3-0.8,0.8c0,0.4,0.3,0.8,0.8,0.8c0.4,0,0.8-0.3,0.8-0.8
					C91.1-21.1,90.8-21.4,90.4-21.4z"/>
				<path class="st3" d="M90.4-11.5c-0.4,0-0.8,0.3-0.8,0.8c0,0.4,0.3,0.8,0.8,0.8c0.4,0,0.8-0.3,0.8-0.8
					C91.1-11.1,90.8-11.5,90.4-11.5z"/>
				<path class="st3" d="M100.3-21.4c-0.4,0-0.8,0.3-0.8,0.8c0,0.4,0.3,0.8,0.8,0.8c0.4,0,0.8-0.3,0.8-0.8
					C101.1-21.1,100.7-21.4,100.3-21.4z"/>
				<path class="st3" d="M100.3-11.5c-0.4,0-0.8,0.3-0.8,0.8c0,0.4,0.3,0.8,0.8,0.8c0.4,0,0.8-0.3,0.8-0.8
					C101.1-11.1,100.7-11.5,100.3-11.5z"/>
				<path class="st3" d="M110.3-21.4c-0.4,0-0.8,0.3-0.8,0.8c0,0.4,0.3,0.8,0.8,0.8c0.4,0,0.8-0.3,0.8-0.8
					C111-21.1,110.7-21.4,110.3-21.4z"/>
				<path class="st3" d="M120.2-21.4c-0.4,0-0.8,0.3-0.8,0.8c0,0.4,0.3,0.8,0.8,0.8s0.8-0.3,0.8-0.8C121-21.1,120.7-21.4,120.2-21.4
					z"/>
				<path class="st3" d="M110.3-11.5c-0.4,0-0.8,0.3-0.8,0.8c0,0.4,0.3,0.8,0.8,0.8c0.4,0,0.8-0.3,0.8-0.8
					C111-11.1,110.7-11.5,110.3-11.5z"/>
				<path class="st3" d="M20.7-1.5c-0.4,0-0.8,0.3-0.8,0.8S20.3,0,20.7,0c0.4,0,0.8-0.3,0.8-0.8S21.1-1.5,20.7-1.5z"/>
				<path class="st3" d="M0.8-111c-0.4,0-0.8,0.3-0.8,0.8c0,0.4,0.3,0.8,0.8,0.8c0.4,0,0.8-0.3,0.8-0.8C1.5-110.7,1.2-111,0.8-111z"
					/>
				<path class="st3" d="M0.8-101.1c-0.4,0-0.8,0.3-0.8,0.8c0,0.4,0.3,0.8,0.8,0.8c0.4,0,0.8-0.3,0.8-0.8
					C1.5-100.7,1.2-101.1,0.8-101.1z"/>
				<path class="st3" d="M0.8-121c-0.4,0-0.8,0.3-0.8,0.8c0,0.4,0.3,0.8,0.8,0.8c0.4,0,0.8-0.3,0.8-0.8C1.5-120.7,1.2-121,0.8-121z"
					/>
				<path class="st3" d="M0.8-131c-0.4,0-0.8,0.3-0.8,0.8c0,0.4,0.3,0.8,0.8,0.8c0.4,0,0.8-0.3,0.8-0.8C1.5-130.6,1.2-131,0.8-131z"
					/>
				<path class="st3" d="M0.8-91.1c-0.4,0-0.8,0.3-0.8,0.8s0.3,0.8,0.8,0.8c0.4,0,0.8-0.3,0.8-0.8S1.2-91.1,0.8-91.1z"/>
				<path class="st3" d="M0.8-81.2c-0.4,0-0.8,0.3-0.8,0.8c0,0.4,0.3,0.8,0.8,0.8c0.4,0,0.8-0.3,0.8-0.8C1.5-80.8,1.2-81.2,0.8-81.2
					z"/>
				<path class="st3" d="M0.8-71.2c-0.4,0-0.8,0.3-0.8,0.8s0.3,0.8,0.8,0.8c0.4,0,0.8-0.3,0.8-0.8S1.2-71.2,0.8-71.2z"/>
				<path class="st3" d="M0.8-61.3c-0.4,0-0.8,0.3-0.8,0.8c0,0.4,0.3,0.8,0.8,0.8c0.4,0,0.8-0.3,0.8-0.8C1.5-60.9,1.2-61.3,0.8-61.3
					z"/>
				<path class="st3" d="M0.8-51.3C0.3-51.3,0-51,0-50.5c0,0.4,0.3,0.8,0.8,0.8c0.4,0,0.8-0.3,0.8-0.8C1.5-51,1.2-51.3,0.8-51.3z"/>
				<path class="st3" d="M0.8-41.3C0.3-41.3,0-41,0-40.6c0,0.4,0.3,0.8,0.8,0.8c0.4,0,0.8-0.3,0.8-0.8C1.5-41,1.2-41.3,0.8-41.3z"/>
				<path class="st3" d="M0.8-31.4C0.3-31.4,0-31,0-30.6c0,0.4,0.3,0.8,0.8,0.8c0.4,0,0.8-0.3,0.8-0.8C1.5-31,1.2-31.4,0.8-31.4z"/>
				<path class="st3" d="M0.8-21.4c-0.4,0-0.8,0.3-0.8,0.8c0,0.4,0.3,0.8,0.8,0.8c0.4,0,0.8-0.3,0.8-0.8C1.5-21.1,1.2-21.4,0.8-21.4
					z"/>
				<path class="st3" d="M0.8-11.5c-0.4,0-0.8,0.3-0.8,0.8C0-10.3,0.3-10,0.8-10c0.4,0,0.8-0.3,0.8-0.8C1.5-11.1,1.2-11.5,0.8-11.5z
					"/>
				<path class="st3" d="M0.8-1.5C0.3-1.5,0-1.2,0-0.8S0.3,0,0.8,0c0.4,0,0.8-0.3,0.8-0.8S1.2-1.5,0.8-1.5z"/>
				<path class="st3" d="M10.7-1.5c-0.4,0-0.8,0.3-0.8,0.8S10.3,0,10.7,0c0.4,0,0.8-0.3,0.8-0.8S11.1-1.5,10.7-1.5z"/>
				<path class="st3" d="M30.6-1.5c-0.4,0-0.8,0.3-0.8,0.8S30.2,0,30.6,0c0.4,0,0.8-0.3,0.8-0.8S31-1.5,30.6-1.5z"/>
				<path class="st3" d="M40.6-1.5c-0.4,0-0.8,0.3-0.8,0.8S40.2,0,40.6,0c0.4,0,0.8-0.3,0.8-0.8S41-1.5,40.6-1.5z"/>
				<path class="st3" d="M50.5-1.5c-0.4,0-0.8,0.3-0.8,0.8S50.1,0,50.5,0c0.4,0,0.8-0.3,0.8-0.8S51-1.5,50.5-1.5z"/>
				<path class="st3" d="M60.5-1.5c-0.4,0-0.8,0.3-0.8,0.8S60.1,0,60.5,0c0.4,0,0.8-0.3,0.8-0.8S60.9-1.5,60.5-1.5z"/>
				<path class="st3" d="M70.5-1.5c-0.4,0-0.8,0.3-0.8,0.8S70,0,70.5,0c0.4,0,0.8-0.3,0.8-0.8S70.9-1.5,70.5-1.5z"/>
				<path class="st3" d="M80.4-1.5c-0.4,0-0.8,0.3-0.8,0.8S80,0,80.4,0c0.4,0,0.8-0.3,0.8-0.8S80.8-1.5,80.4-1.5z"/>
				<path class="st3" d="M90.4-1.5c-0.4,0-0.8,0.3-0.8,0.8S89.9,0,90.4,0c0.4,0,0.8-0.3,0.8-0.8S90.8-1.5,90.4-1.5z"/>
				<path class="st3" d="M100.3-1.5c-0.4,0-0.8,0.3-0.8,0.8S99.9,0,100.3,0c0.4,0,0.8-0.3,0.8-0.8S100.7-1.5,100.3-1.5z"/>
				<path class="st3" d="M120.2-11.5c-0.4,0-0.8,0.3-0.8,0.8c0,0.4,0.3,0.8,0.8,0.8s0.8-0.3,0.8-0.8C121-11.1,120.7-11.5,120.2-11.5
					z"/>
				<path class="st3" d="M110.3-1.5c-0.4,0-0.8,0.3-0.8,0.8s0.3,0.8,0.8,0.8c0.4,0,0.8-0.3,0.8-0.8S110.7-1.5,110.3-1.5z"/>
				<path class="st3" d="M130.2-111c-0.4,0-0.8,0.3-0.8,0.8c0,0.4,0.3,0.8,0.8,0.8s0.8-0.3,0.8-0.8C131-110.7,130.6-111,130.2-111z"
					/>
				<path class="st3" d="M130.2-121c-0.4,0-0.8,0.3-0.8,0.8c0,0.4,0.3,0.8,0.8,0.8s0.8-0.3,0.8-0.8C131-120.7,130.6-121,130.2-121z"
					/>
				<path class="st3" d="M130.2-129.4c0.4,0,0.8-0.3,0.8-0.8c0-0.4-0.3-0.8-0.8-0.8s-0.8,0.3-0.8,0.8
					C129.4-129.8,129.8-129.4,130.2-129.4z"/>
				<path class="st3" d="M130.2-101.1c-0.4,0-0.8,0.3-0.8,0.8c0,0.4,0.3,0.8,0.8,0.8s0.8-0.3,0.8-0.8
					C131-100.7,130.6-101.1,130.2-101.1z"/>
				<path class="st3" d="M130.2-91.1c-0.4,0-0.8,0.3-0.8,0.8s0.3,0.8,0.8,0.8s0.8-0.3,0.8-0.8S130.6-91.1,130.2-91.1z"/>
				<path class="st3" d="M130.2-81.2c-0.4,0-0.8,0.3-0.8,0.8c0,0.4,0.3,0.8,0.8,0.8s0.8-0.3,0.8-0.8C131-80.8,130.6-81.2,130.2-81.2
					z"/>
				<path class="st3" d="M130.2-71.2c-0.4,0-0.8,0.3-0.8,0.8s0.3,0.8,0.8,0.8s0.8-0.3,0.8-0.8S130.6-71.2,130.2-71.2z"/>
				<path class="st3" d="M130.2-61.3c-0.4,0-0.8,0.3-0.8,0.8c0,0.4,0.3,0.8,0.8,0.8s0.8-0.3,0.8-0.8C131-60.9,130.6-61.3,130.2-61.3
					z"/>
				<path class="st3" d="M130.2-51.3c-0.4,0-0.8,0.3-0.8,0.8c0,0.4,0.3,0.8,0.8,0.8s0.8-0.3,0.8-0.8C131-51,130.6-51.3,130.2-51.3z"
					/>
				<path class="st3" d="M130.2-41.3c-0.4,0-0.8,0.3-0.8,0.8c0,0.4,0.3,0.8,0.8,0.8s0.8-0.3,0.8-0.8C131-41,130.6-41.3,130.2-41.3z"
					/>
				<path class="st3" d="M130.2-31.4c-0.4,0-0.8,0.3-0.8,0.8c0,0.4,0.3,0.8,0.8,0.8s0.8-0.3,0.8-0.8C131-31,130.6-31.4,130.2-31.4z"
					/>
				<path class="st3" d="M130.2-21.4c-0.4,0-0.8,0.3-0.8,0.8c0,0.4,0.3,0.8,0.8,0.8s0.8-0.3,0.8-0.8C131-21.1,130.6-21.4,130.2-21.4
					z"/>
				<path class="st3" d="M130.2-11.5c-0.4,0-0.8,0.3-0.8,0.8c0,0.4,0.3,0.8,0.8,0.8s0.8-0.3,0.8-0.8C131-11.1,130.6-11.5,130.2-11.5
					z"/>
				<path class="st3" d="M120.2-1.5c-0.4,0-0.8,0.3-0.8,0.8s0.3,0.8,0.8,0.8s0.8-0.3,0.8-0.8S120.7-1.5,120.2-1.5z"/>
				<path class="st3" d="M130.2-1.5c-0.4,0-0.8,0.3-0.8,0.8s0.3,0.8,0.8,0.8s0.8-0.3,0.8-0.8S130.6-1.5,130.2-1.5z"/>
			</g>
			
				<ellipse transform="matrix(0.3827 -0.9239 0.9239 0.3827 105.342 -41.8873)" class="st4" cx="21.3" cy="-99.8" rx="14.3" ry="14.3"/>
			<circle class="st4" cx="65.5" cy="-21.5" r="8.3"/>
			<circle class="st5" cx="31.4" cy="-91.1" r="6.4"/>
			<path class="st5" d="M110.2-23.5c0,2-1.6,3.6-3.6,3.6s-3.6-1.6-3.6-3.6s1.6-3.6,3.6-3.6S110.2-25.4,110.2-23.5z"/>
			<path class="st5" d="M103.9-110.4c0,2-1.6,3.6-3.6,3.6s-3.6-1.6-3.6-3.6s1.6-3.6,3.6-3.6S103.9-112.4,103.9-110.4z"/>
			<g class="st2">
				
					<rect x="23.9" y="-69.3" transform="matrix(0.7071 0.7071 -0.7071 0.7071 -35.3214 -35.6904)" class="st6" width="3" height="17.7"/>
				
					<rect x="23.9" y="-69.3" transform="matrix(0.7071 -0.7071 0.7071 0.7071 50.2129 0.2621)" class="st6" width="3" height="17.7"/>
			</g>
			<g class="st2">
				<rect x="94.5" y="-95.8" class="st7" width="19.1" height="1.5"/>
				<rect x="94.5" y="-91.1" class="st7" width="19.1" height="1.5"/>
				<rect x="94.5" y="-86.5" class="st7" width="19.1" height="1.5"/>
			</g>
			<polygon class="st8" points="106.6,-48.7 86.6,-27.4 78.2,-55.3 			"/>
			<polygon class="st8" points="45.9,-128.6 42.9,-121.3 38.1,-127.5 			"/>
			<polygon class="st9" points="115.6,-40.6 92.4,-40.4 103.9,-60.6 			"/>
			<g class="st2">
				
					<rect x="4.1" y="-43" transform="matrix(6.123234e-17 -1 1 6.123234e-17 47.0647 -31.5423)" class="st7" width="7.4" height="7.4"/>
				
					<rect x="5.1" y="-44.3" transform="matrix(6.123234e-17 -1 1 6.123234e-17 49.4061 -31.7628)" class="st10" width="7.4" height="7.4"/>
			</g>
			<g class="st2">
				<rect x="89.5" y="-15.1" class="st11" width="1.7" height="10.3"/>
				
					<rect x="89.5" y="-15.1" transform="matrix(6.123234e-17 -1 1 6.123234e-17 100.324 80.4108)" class="st11" width="1.7" height="10.3"/>
			</g>
			<g class="st2">
				
					<rect x="59.6" y="-104.7" transform="matrix(0.7071 -0.7071 0.7071 0.7071 88.1232 13.6161)" class="st12" width="1.7" height="10.3"/>
				
					<rect x="59.6" y="-104.7" transform="matrix(-0.7071 -0.7071 0.7071 -0.7071 173.6798 -127.1916)" class="st12" width="1.7" height="10.3"/>
			</g>
		</g>
	</g>
</pattern>
<g id="PATTERN">
	<g>
		<rect y="0" class="st13" width="125" height="500"/>
		<pattern  id="SVGID_3_" xlink:href="#Nueva_muestra_de_motivo_25" patternTransform="matrix(1 0 0 1 125 0)">
		</pattern>
		<rect x="125" y="0" class="st14" width="125" height="500"/>
		<pattern  id="SVGID_4_" xlink:href="#Nueva_muestra_de_motivo_25" patternTransform="matrix(1 0 0 1 250 0)">
		</pattern>
		<rect x="250" y="0" class="st15" width="125" height="500"/>
		<pattern  id="SVGID_5_" xlink:href="#Nueva_muestra_de_motivo_25" patternTransform="matrix(1 0 0 1 375 0)">
		</pattern>
		<rect x="375" y="0" class="st16" width="125" height="500"/>
	</g>
</g>
<g id="OBJECTS">
</g>
<g id="DESIGNED_BY_FREEPIK">
</g>
</svg>
